<svg width="124" height="66" viewBox="0 0 124 66" fill="none" xmlns="http://www.w3.org/2000/svg">
<mask id="path-1-outside-1_1_45" maskUnits="userSpaceOnUse" x="-0.00415039" y="0" width="124" height="66" fill="black">
<rect fill="white" x="-0.00415039" width="124" height="66"/>
<path fill-rule="evenodd" clip-rule="evenodd" d="M61.8003 4C92.1492 4 117.054 27.3095 119.588 57.0023C119.823 59.7537 117.562 62 114.8 62H8.80031C6.03889 62 3.77781 59.7537 4.01263 57.0023C6.54676 27.3095 31.4514 4 61.8003 4Z"/>
</mask>
<path fill-rule="evenodd" clip-rule="evenodd" d="M61.8003 4C92.1492 4 117.054 27.3095 119.588 57.0023C119.823 59.7537 117.562 62 114.8 62H8.80031C6.03889 62 3.77781 59.7537 4.01263 57.0023C6.54676 27.3095 31.4514 4 61.8003 4Z" fill="url(#paint0_linear_1_45)"/>
<path d="M4.01263 57.0023L2.01988 56.8322L4.01263 57.0023ZM119.588 57.0023L117.595 57.1724L119.588 57.0023ZM59.5722 2.04063C58.4683 2.08095 57.6062 3.00847 57.6465 4.11231C57.6868 5.21614 58.6143 6.07829 59.7182 6.03797L59.6452 4.0393L59.5722 2.04063ZM51.462 6.95198C52.5478 6.74937 53.2638 5.70489 53.0612 4.61906C52.8586 3.53323 51.8141 2.81724 50.7283 3.01985L51.0951 4.98592L51.462 6.95198ZM37.9729 6.91801C36.9593 7.35704 36.4935 8.53461 36.9326 9.54818C37.3716 10.5617 38.5492 11.0275 39.5627 10.5885L38.7678 8.75324L37.9729 6.91801ZM25.5042 19.3536C26.345 18.6373 26.4459 17.375 25.7296 16.5341C25.0132 15.6933 23.7509 15.5924 22.9101 16.3088L24.2071 17.8312L25.5042 19.3536ZM11.2399 29.6811C10.6442 30.6113 10.9153 31.8482 11.8454 32.444C12.7755 33.0397 14.0125 32.7687 14.6083 31.8385L12.9241 30.7598L11.2399 29.6811ZM12.4981 35.419C13.0232 34.4473 12.6611 33.2338 11.6893 32.7087C10.7175 32.1837 9.50404 32.5458 8.97896 33.5176L10.7385 34.4683L12.4981 35.419ZM5.34285 41.6419C4.96812 42.681 5.50666 43.8271 6.54572 44.2018C7.58478 44.5766 8.73089 44.038 9.10562 42.999L7.22424 42.3205L5.34285 41.6419ZM6.22066 55.1027C6.35526 54.0063 5.57563 53.0085 4.47929 52.8739C3.38295 52.7392 2.38508 53.5189 2.25047 54.6152L4.23556 54.8589L6.22066 55.1027ZM2.00199 57.1106C1.95433 58.2141 2.8103 59.1474 3.91384 59.195C5.01738 59.2427 5.95061 58.3867 5.99826 57.2831L4.00012 57.1969L2.00199 57.1106ZM6.01649 57.7156C5.87403 56.6203 4.87058 55.8478 3.77524 55.9903C2.6799 56.1328 1.90744 57.1362 2.0499 58.2315L4.0332 57.9736L6.01649 57.7156ZM2.48676 59.8649C2.91005 60.8851 4.08027 61.3691 5.10051 60.9458C6.12076 60.5225 6.60468 59.3523 6.18139 58.332L4.33408 59.0985L2.48676 59.8649ZM6.64827 59.0656C5.90766 58.2462 4.64295 58.1822 3.82345 58.9228C3.00396 59.6634 2.94001 60.9281 3.68062 61.7476L5.16445 60.4066L6.64827 59.0656ZM5.39991 63.1169C6.36357 63.6567 7.5824 63.3132 8.12226 62.3495C8.66211 61.3859 8.31855 60.167 7.3549 59.6272L6.37741 61.372L5.39991 63.1169ZM7.55961 59.7313C6.55602 59.27 5.36842 59.7095 4.90703 60.7131C4.44564 61.7167 4.88519 62.9043 5.88878 63.3657L6.72419 61.5485L7.55961 59.7313ZM6.91593 63.7425C7.97973 64.0399 9.08315 63.4185 9.38048 62.3547C9.67782 61.2909 9.05649 60.1875 7.99269 59.8902L7.45431 61.8164L6.91593 63.7425ZM8.68226 59.9977C7.57851 59.9553 6.64936 60.8157 6.60694 61.9195C6.56453 63.0232 7.42491 63.9524 8.52867 63.9948L8.60547 61.9963L8.68226 59.9977ZM11.4503 64C12.5549 64 13.4503 63.1046 13.4503 62C13.4503 60.8954 12.5549 60 11.4503 60V62V64ZM22.0503 60C20.9457 60 20.0503 60.8954 20.0503 62C20.0503 63.1046 20.9457 64 22.0503 64V62V60ZM37.9503 64C39.0549 64 39.9503 63.1046 39.9503 62C39.9503 60.8954 39.0549 60 37.9503 60V62V64ZM59.1503 60C58.0457 60 57.1503 60.8954 57.1503 62C57.1503 63.1046 58.0457 64 59.1503 64V62V60ZM80.3503 64C81.4549 64 82.3503 63.1046 82.3503 62C82.3503 60.8954 81.4549 60 80.3503 60V62V64ZM85.6503 60C84.5458 60 83.6503 60.8954 83.6503 62C83.6503 63.1046 84.5458 64 85.6503 64V62V60ZM96.2503 64C97.3549 64 98.2503 63.1046 98.2503 62C98.2503 60.8954 97.3549 60 96.2503 60V62V64ZM112.15 60C111.046 60 110.15 60.8954 110.15 62C110.15 63.1046 111.046 64 112.15 64V62V60ZM115.072 63.9948C116.176 63.9524 117.036 63.0232 116.994 61.9195C116.951 60.8157 116.022 59.9553 114.918 59.9977L114.995 61.9963L115.072 63.9948ZM115.382 59.9438C114.298 60.1566 113.592 61.2078 113.805 62.2917C114.018 63.3756 115.069 64.0817 116.153 63.8688L115.768 61.9063L115.382 59.9438ZM117.712 63.3657C118.715 62.9043 119.155 61.7167 118.694 60.7131C118.232 59.7095 117.045 59.27 116.041 59.7313L116.876 61.5485L117.712 63.3657ZM116.795 59.2255C115.99 59.9811 115.949 61.2468 116.705 62.0525C117.46 62.8582 118.726 62.8988 119.532 62.1432L118.164 60.6843L116.795 59.2255ZM120.876 60.3752C121.386 59.3956 121.006 58.1878 120.026 57.6774C119.046 57.167 117.839 57.5473 117.328 58.5269L119.102 59.451L120.876 60.3752ZM117.419 58.332C116.996 59.3523 117.48 60.5225 118.5 60.9458C119.52 61.3691 120.691 60.8851 121.114 59.8649L119.267 59.0985L117.419 58.332ZM121.453 58.7882C121.691 57.7096 121.01 56.6422 119.932 56.404C118.853 56.1659 117.786 56.8472 117.547 57.9258L119.5 58.357L121.453 58.7882ZM117.602 57.2831C117.65 58.3867 118.583 59.2427 119.687 59.195C120.79 59.1474 121.646 58.2141 121.599 57.1106L119.601 57.1969L117.602 57.2831ZM121.35 54.6152C121.216 53.5189 120.218 52.7392 119.121 52.8739C118.025 53.0085 117.245 54.0063 117.38 55.1027L119.365 54.8589L121.35 54.6152ZM115.758 46.9585C116.054 48.0227 117.156 48.6454 118.221 48.3494C119.285 48.0534 119.907 46.9508 119.611 45.8866L117.685 46.4226L115.758 46.9585ZM114.622 33.5176C114.097 32.5458 112.883 32.1837 111.911 32.7087C110.94 33.2338 110.577 34.4473 111.103 35.419L112.862 34.4683L114.622 33.5176ZM101.159 22.1645C101.945 22.9408 103.211 22.9332 103.988 22.1475C104.764 21.3618 104.756 20.0955 103.971 19.3192L102.565 20.7418L101.159 22.1645ZM89.6454 8.83921C88.6673 8.3259 87.4583 8.70264 86.945 9.6807C86.4317 10.6587 86.8084 11.8677 87.7865 12.381L88.7159 10.6101L89.6454 8.83921ZM84.0379 10.5885C85.0515 11.0275 86.229 10.5617 86.6681 9.54818C87.1071 8.53461 86.6413 7.35704 85.6278 6.91801L84.8328 8.75324L84.0379 10.5885ZM77.2181 3.99992C76.1504 3.71682 75.0554 4.35285 74.7723 5.42052C74.4892 6.4882 75.1252 7.58321 76.1929 7.86631L76.7055 5.93311L77.2181 3.99992ZM63.8824 6.03797C64.9863 6.07829 65.9138 5.21614 65.9541 4.11231C65.9944 3.00847 65.1323 2.08095 64.0285 2.04063L63.9555 4.0393L63.8824 6.03797ZM61.8003 4V2C61.0544 2 60.3116 2.01362 59.5722 2.04063L59.6452 4.0393L59.7182 6.03797C60.409 6.01273 61.1031 6 61.8003 6V4ZM51.0951 4.98592L50.7283 3.01985C46.285 3.84895 42.0137 5.16774 37.9729 6.91801L38.7678 8.75324L39.5627 10.5885C43.3323 8.95569 47.3167 7.72548 51.462 6.95198L51.0951 4.98592ZM24.2071 17.8312L22.9101 16.3088C18.3929 20.1572 14.4535 24.6639 11.2399 29.6811L12.9241 30.7598L14.6083 31.8385C17.608 27.1551 21.2861 22.9471 25.5042 19.3536L24.2071 17.8312ZM10.7385 34.4683L8.97896 33.5176C7.57495 36.1161 6.35693 38.8301 5.34285 41.6419L7.22424 42.3205L9.10562 42.999C10.0516 40.3761 11.1879 37.8439 12.4981 35.419L10.7385 34.4683ZM4.23556 54.8589L2.25047 54.6152C2.16022 55.3502 2.08328 56.0893 2.01988 56.8322L4.01263 57.0023L6.00539 57.1724C6.06459 56.4787 6.13642 55.7887 6.22066 55.1027L4.23556 54.8589ZM4.01263 57.0023L2.01988 56.8322C2.01194 56.9252 2.00598 57.018 2.00199 57.1106L4.00012 57.1969L5.99826 57.2831C5.99984 57.2466 6.0022 57.2097 6.00539 57.1724L4.01263 57.0023ZM4.0332 57.9736L2.0499 58.2315C2.12418 58.8026 2.27327 59.3503 2.48676 59.8649L4.33408 59.0985L6.18139 58.332C6.1006 58.1373 6.04452 57.9311 6.01649 57.7156L4.0332 57.9736ZM5.16445 60.4066L3.68062 61.7476C4.17356 62.2931 4.75506 62.7556 5.39991 63.1169L6.37741 61.372L7.3549 59.6272C7.08504 59.476 6.84657 59.2851 6.64827 59.0656L5.16445 60.4066ZM6.72419 61.5485L5.88878 63.3657C6.21808 63.5171 6.56141 63.6434 6.91593 63.7425L7.45431 61.8164L7.99269 59.8902C7.84258 59.8482 7.69785 59.7949 7.55961 59.7313L6.72419 61.5485ZM8.60547 61.9963L8.52867 63.9948C8.61889 63.9983 8.70945 64 8.80031 64V62V60C8.7607 60 8.72135 59.9992 8.68226 59.9977L8.60547 61.9963ZM8.80031 62V64H11.4503V62V60H8.80031V62ZM22.0503 62V64H37.9503V62V60H22.0503V62ZM59.1503 62V64H80.3503V62V60H59.1503V62ZM85.6503 62V64H96.2503V62V60H85.6503V62ZM112.15 62V64H114.8V62V60H112.15V62ZM114.8 62V64C114.891 64 114.982 63.9983 115.072 63.9948L114.995 61.9963L114.918 59.9977C114.879 59.9992 114.84 60 114.8 60V62ZM115.768 61.9063L116.153 63.8688C116.698 63.7619 117.22 63.5917 117.712 63.3657L116.876 61.5485L116.041 59.7313C115.835 59.8262 115.614 59.8983 115.382 59.9438L115.768 61.9063ZM118.164 60.6843L119.532 62.1432C120.071 61.6374 120.528 61.0417 120.876 60.3752L119.102 59.451L117.328 58.5269C117.195 58.7829 117.015 59.0195 116.795 59.2255L118.164 60.6843ZM119.267 59.0985L121.114 59.8649C121.257 59.5202 121.371 59.1603 121.453 58.7882L119.5 58.357L117.547 57.9258C117.516 58.0656 117.473 58.2013 117.419 58.332L119.267 59.0985ZM119.601 57.1969L121.599 57.1106C121.595 57.018 121.589 56.9252 121.581 56.8322L119.588 57.0023L117.595 57.1724C117.598 57.2097 117.601 57.2466 117.602 57.2831L119.601 57.1969ZM119.588 57.0023L121.581 56.8322C121.517 56.0893 121.44 55.3502 121.35 54.6152L119.365 54.8589L117.38 55.1027C117.464 55.7887 117.536 56.4787 117.595 57.1724L119.588 57.0023ZM117.685 46.4226L119.611 45.8866C118.404 41.5452 116.721 37.4023 114.622 33.5176L112.862 34.4683L111.103 35.419C113.061 39.044 114.631 42.909 115.758 46.9585L117.685 46.4226ZM102.565 20.7418L103.971 19.3192C99.76 15.1584 94.9359 11.6158 89.6454 8.83921L88.7159 10.6101L87.7865 12.381C92.7235 14.9721 97.2272 18.2791 101.159 22.1645L102.565 20.7418ZM84.8328 8.75324L85.6278 6.91801C82.9221 5.74606 80.1131 4.76753 77.2181 3.99992L76.7055 5.93311L76.1929 7.86631C78.8933 8.58234 81.5137 9.49514 84.0379 10.5885L84.8328 8.75324ZM63.9555 4.0393L64.0285 2.04063C63.289 2.01362 62.5462 2 61.8003 2V4V6C62.4975 6 63.1916 6.01273 63.8824 6.03797L63.9555 4.0393ZM4.01263 57.0023L0.0271213 56.6621L4.01263 57.0023ZM119.588 57.0023L115.602 57.3424L119.588 57.0023ZM59.4992 0.0419643C57.2915 0.122606 55.5672 1.97765 55.6478 4.18531C55.7285 6.39298 57.5835 8.11727 59.7912 8.03663L59.6452 4.0393L59.4992 0.0419643ZM51.8289 8.91805C54.0005 8.51283 55.4325 6.42386 55.0273 4.2522C54.6221 2.08055 52.5331 0.648566 50.3614 1.05378L51.0951 4.98592L51.8289 8.91805ZM37.1779 5.08278C35.1508 5.96084 34.2193 8.31597 35.0973 10.3431C35.9754 12.3703 38.3305 13.3018 40.3577 12.4237L38.7678 8.75324L37.1779 5.08278ZM26.8012 20.876C28.4828 19.4433 28.6846 16.9187 27.252 15.2371C25.8193 13.5555 23.2947 13.3537 21.6131 14.7863L24.2071 17.8312L26.8012 20.876ZM9.55577 28.6024C8.36427 30.4627 8.90642 32.9366 10.7667 34.1282C12.627 35.3197 15.1009 34.7775 16.2924 32.9172L12.9241 30.7598L9.55577 28.6024ZM14.2577 36.3698C15.3078 34.4262 14.5836 31.9993 12.64 30.9492C10.6964 29.899 8.26954 30.6233 7.21939 32.5668L10.7385 34.4683L14.2577 36.3698ZM3.46147 40.9634C2.71199 43.0415 3.78907 45.3337 5.86719 46.0832C7.94531 46.8327 10.2375 45.7556 10.987 43.6775L7.22424 42.3205L3.46147 40.9634ZM8.20575 55.3464C8.47496 53.1537 6.91569 51.158 4.72302 50.8888C2.53034 50.6195 0.534589 52.1788 0.265376 54.3715L4.23556 54.8589L8.20575 55.3464ZM0.00384712 57.0243C-0.0914559 59.2314 1.62048 61.0978 3.82756 61.1931C6.03464 61.2884 7.9011 59.5765 7.9964 57.3694L4.00012 57.1969L0.00384712 57.0243ZM7.99979 57.4577C7.71486 55.267 5.70797 53.7221 3.51728 54.007C1.3266 54.2919 -0.218323 56.2988 0.0666096 58.4895L4.0332 57.9736L7.99979 57.4577ZM0.639444 60.6313C1.48603 62.6718 3.82646 63.6397 5.86695 62.7931C7.90744 61.9465 8.87529 59.6061 8.02871 57.5656L4.33408 59.0985L0.639444 60.6313ZM8.1321 57.7246C6.65088 56.0857 4.12145 55.9578 2.48246 57.439C0.843472 58.9202 0.715577 61.4496 2.1968 63.0886L5.16445 60.4066L8.1321 57.7246ZM4.42242 64.8617C6.34973 65.9414 8.7874 65.2543 9.86711 63.327C10.9468 61.3997 10.2597 58.962 8.33239 57.8823L6.37741 61.372L4.42242 64.8617ZM8.39502 57.9142C6.38784 56.9914 4.01264 57.8705 3.08987 59.8777C2.16709 61.8849 3.04618 64.2601 5.05336 65.1828L6.72419 61.5485L8.39502 57.9142ZM6.37755 65.6687C8.50515 66.2634 10.712 65.0207 11.3067 62.8931C11.9013 60.7655 10.6587 58.5587 8.53107 57.964L7.45431 61.8164L6.37755 65.6687ZM8.75906 57.9992C6.55155 57.9144 4.69325 59.6352 4.60842 61.8427C4.52359 64.0502 6.24436 65.9085 8.45187 65.9933L8.60547 61.9963L8.75906 57.9992ZM11.4503 66C13.6595 66 15.4503 64.2091 15.4503 62C15.4503 59.7909 13.6595 58 11.4503 58V62V66ZM22.0503 58C19.8412 58 18.0503 59.7909 18.0503 62C18.0503 64.2091 19.8412 66 22.0503 66V62V58ZM37.9503 66C40.1595 66 41.9503 64.2091 41.9503 62C41.9503 59.7909 40.1595 58 37.9503 58V62V66ZM59.1503 58C56.9412 58 55.1503 59.7909 55.1503 62C55.1503 64.2091 56.9412 66 59.1503 66V62V58ZM80.3503 66C82.5595 66 84.3503 64.2091 84.3503 62C84.3503 59.7909 82.5595 58 80.3503 58V62V66ZM85.6503 58C83.4412 58 81.6503 59.7909 81.6503 62C81.6503 64.2091 83.4412 66 85.6503 66V62V58ZM96.2503 66C98.4595 66 100.25 64.2091 100.25 62C100.25 59.7909 98.4595 58 96.2503 58V62V66ZM112.15 58C109.941 58 108.15 59.7909 108.15 62C108.15 64.2091 109.941 66 112.15 66V62V58ZM115.149 65.9933C117.356 65.9085 119.077 64.0502 118.992 61.8427C118.907 59.6352 117.049 57.9144 114.842 57.9992L114.995 61.9963L115.149 65.9933ZM114.997 57.9813C112.829 58.407 111.417 60.5094 111.843 62.6771C112.268 64.8448 114.371 66.257 116.538 65.8313L115.768 61.9063L114.997 57.9813ZM118.547 65.1828C120.554 64.2601 121.434 61.8849 120.511 59.8777C119.588 57.8705 117.213 56.9914 115.206 57.9142L116.876 61.5485L118.547 65.1828ZM115.427 57.7667C113.816 59.2779 113.735 61.8092 115.246 63.4206C116.757 65.032 119.288 65.1132 120.9 63.602L118.164 60.6843L115.427 57.7667ZM122.649 61.2993C123.67 59.3402 122.909 56.9245 120.95 55.9037C118.991 54.8829 116.575 55.6436 115.555 57.6028L119.102 59.451L122.649 61.2993ZM115.572 57.5656C114.725 59.6061 115.693 61.9465 117.734 62.7931C119.774 63.6397 122.115 62.6718 122.961 60.6313L119.267 59.0985L115.572 57.5656ZM123.406 59.2194C123.883 57.0622 122.52 54.9274 120.363 54.4511C118.206 53.9748 116.071 55.3374 115.594 57.4946L119.5 58.357L123.406 59.2194ZM115.604 57.3694C115.7 59.5765 117.566 61.2884 119.773 61.1931C121.98 61.0978 123.692 59.2314 123.597 57.0243L119.601 57.1969L115.604 57.3694ZM123.335 54.3715C123.066 52.1788 121.07 50.6195 118.878 50.8888C116.685 51.158 115.126 53.1537 115.395 55.3464L119.365 54.8589L123.335 54.3715ZM113.831 47.4945C114.423 49.6228 116.628 50.8683 118.757 50.2763C120.885 49.6843 122.13 47.479 121.538 45.3507L117.685 46.4226L113.831 47.4945ZM116.381 32.5668C115.331 30.6233 112.904 29.899 110.961 30.9492C109.017 31.9993 108.293 34.4262 109.343 36.3698L112.862 34.4683L116.381 32.5668ZM99.7536 23.5871C101.325 25.1398 103.858 25.1247 105.41 23.5533C106.963 21.9819 106.948 19.4493 105.377 17.8965L102.565 20.7418L99.7536 23.5871ZM90.5748 7.06829C88.6187 6.04167 86.2007 6.79516 85.1741 8.75126C84.1475 10.7074 84.901 13.1253 86.8571 14.152L88.7159 10.6101L90.5748 7.06829ZM83.243 12.4237C85.2701 13.3018 87.6252 12.3703 88.5033 10.3431C89.3814 8.31597 88.4498 5.96084 86.4227 5.08278L84.8328 8.75324L83.243 12.4237ZM77.7307 2.06672C75.5953 1.50053 73.4053 2.77258 72.8391 4.90793C72.2729 7.04328 73.545 9.23331 75.6803 9.79951L76.7055 5.93311L77.7307 2.06672ZM63.8094 8.03663C66.0171 8.11727 67.8721 6.39298 67.9528 4.18531C68.0334 1.97765 66.3091 0.122606 64.1015 0.0419643L63.9555 4.0393L63.8094 8.03663ZM61.8003 4V0C61.0301 0 60.2629 0.0140646 59.4992 0.0419643L59.6452 4.0393L59.7912 8.03663C60.4577 8.01229 61.1275 8 61.8003 8V4ZM51.0951 4.98592L50.3614 1.05378C45.7691 1.91068 41.3543 3.27377 37.1779 5.08278L38.7678 8.75324L40.3577 12.4237C43.9916 10.8497 47.8325 9.66375 51.8289 8.91805L51.0951 4.98592ZM24.2071 17.8312L21.6131 14.7863C16.9463 18.7622 12.8762 23.4183 9.55577 28.6024L12.9241 30.7598L16.2924 32.9172C19.1852 28.4007 22.7327 24.3421 26.8012 20.876L24.2071 17.8312ZM10.7385 34.4683L7.21939 32.5668C5.76846 35.2521 4.50961 38.0572 3.46147 40.9634L7.22424 42.3205L10.987 43.6775C11.8989 41.149 12.9944 38.7078 14.2577 36.3698L10.7385 34.4683ZM4.23556 54.8589L0.265376 54.3715C0.172125 55.131 0.0926242 55.8946 0.0271213 56.6621L4.01263 57.0023L7.99814 57.3424C8.05524 56.6734 8.12452 56.008 8.20575 55.3464L4.23556 54.8589ZM4.01263 57.0023L0.0271213 56.6621C0.0168076 56.783 0.00905395 56.9037 0.00384712 57.0243L4.00012 57.1969L7.9964 57.3694C7.99677 57.3609 7.99734 57.3519 7.99814 57.3424L4.01263 57.0023ZM4.0332 57.9736L0.0666096 58.4895C0.164003 59.2383 0.359599 59.9568 0.639444 60.6313L4.33408 59.0985L8.02871 57.5656C8.01427 57.5308 8.0047 57.4954 7.99979 57.4577L4.0332 57.9736ZM5.16445 60.4066L2.1968 63.0886C2.83706 63.7971 3.59007 64.3954 4.42242 64.8617L6.37741 61.372L8.33239 57.8823C8.25003 57.8362 8.18308 57.7811 8.1321 57.7246L5.16445 60.4066ZM6.72419 61.5485L5.05336 65.1828C5.4782 65.3781 5.92082 65.5411 6.37755 65.6687L7.45431 61.8164L8.53107 57.964C8.48317 57.9506 8.43773 57.9338 8.39502 57.9142L6.72419 61.5485ZM8.60547 61.9963L8.45187 65.9933C8.56766 65.9978 8.68383 66 8.80031 66V62V58C8.78633 58 8.77258 57.9997 8.75906 57.9992L8.60547 61.9963ZM8.80031 62V66H11.4503V62V58H8.80031V62ZM22.0503 62V66H37.9503V62V58H22.0503V62ZM59.1503 62V66H80.3503V62V58H59.1503V62ZM85.6503 62V66H96.2503V62V58H85.6503V62ZM112.15 62V66H114.8V62V58H112.15V62ZM114.8 62V66C114.917 66 115.033 65.9978 115.149 65.9933L114.995 61.9963L114.842 57.9992C114.828 57.9997 114.814 58 114.8 58V62ZM115.768 61.9063L116.538 65.8313C117.239 65.6937 117.913 65.4744 118.547 65.1828L116.876 61.5485L115.206 57.9142C115.142 57.9435 115.072 57.9665 114.997 57.9813L115.768 61.9063ZM118.164 60.6843L120.9 63.602C121.599 62.9464 122.195 62.171 122.649 61.2993L119.102 59.451L115.555 57.6028C115.528 57.6535 115.487 57.7105 115.427 57.7667L118.164 60.6843ZM119.267 59.0985L122.961 60.6313C123.149 60.1796 123.298 59.7076 123.406 59.2194L119.5 58.357L115.594 57.4946C115.589 57.5183 115.582 57.5419 115.572 57.5656L119.267 59.0985ZM119.601 57.1969L123.597 57.0243C123.592 56.9037 123.584 56.783 123.574 56.6621L119.588 57.0023L115.602 57.3424C115.603 57.3519 115.604 57.3609 115.604 57.3694L119.601 57.1969ZM119.588 57.0023L123.574 56.6621C123.508 55.8946 123.429 55.131 123.335 54.3715L119.365 54.8589L115.395 55.3464C115.476 56.008 115.545 56.6734 115.602 57.3424L119.588 57.0023ZM117.685 46.4226L121.538 45.3507C120.29 40.8633 118.55 36.5814 116.381 32.5668L112.862 34.4683L109.343 36.3698C111.231 39.8649 112.745 43.5909 113.831 47.4945L117.685 46.4226ZM102.565 20.7418L105.377 17.8965C101.026 13.5981 96.042 9.93768 90.5748 7.06829L88.7159 10.6101L86.8571 14.152C91.6173 16.6503 95.9608 19.8394 99.7536 23.5871L102.565 20.7418ZM84.8328 8.75324L86.4227 5.08278C83.6263 3.87152 80.7229 2.86012 77.7307 2.06672L76.7055 5.93311L75.6803 9.79951C78.2835 10.4897 80.8095 11.3697 83.243 12.4237L84.8328 8.75324ZM63.9555 4.0393L64.1015 0.0419643C63.3377 0.0140646 62.5705 0 61.8003 0V4V8C62.4731 8 63.1429 8.01229 63.8094 8.03663L63.9555 4.0393Z" fill="black" mask="url(#path-1-outside-1_1_45)"/>
<defs>
<linearGradient id="paint0_linear_1_45" x1="61.8003" y1="4" x2="61.8003" y2="249.87" gradientUnits="userSpaceOnUse">
<stop stop-color="#FDE3B7"/>
<stop offset="1" stop-color="#31757F"/>
</linearGradient>
</defs>
</svg>
