<svg width="91" height="98" viewBox="0 0 91 98" fill="none" xmlns="http://www.w3.org/2000/svg">
<path d="M35.0117 22.3258H33.0117V22.3258L35.0117 22.3258ZM83.5723 70.8854V72.8854H83.5723L83.5723 70.8854ZM50.5605 95.2858V97.2858H50.5606L50.5605 95.2858ZM2 46.7252L0 46.7252V46.7252H2ZM87.7583 77.9406L89.2898 79.227L87.7583 77.9406ZM36.8549 9.03018L38.7788 9.57677L36.8549 9.03018ZM30.7135 2.39391L31.5317 4.21887L30.7135 2.39391ZM37.0128 22.0027C37.0203 20.8981 36.131 19.9966 35.0264 19.9891C33.9219 19.9816 33.0204 20.871 33.0129 21.9755L35.0129 21.9891L37.0128 22.0027ZM33.0415 20.5748C33.0039 21.6787 33.8683 22.6041 34.9722 22.6417C36.0762 22.6793 37.0016 21.8149 37.0392 20.711L35.0403 20.6429L33.0415 20.5748ZM37.1449 18.7764C37.228 17.675 36.4024 16.7148 35.3009 16.6318C34.1995 16.5487 33.2393 17.3743 33.1563 18.4758L35.1506 18.6261L37.1449 18.7764ZM33.444 15.6873C33.3003 16.7825 34.0716 17.7868 35.1667 17.9306C36.2619 18.0743 37.2663 17.303 37.41 16.2078L35.427 15.9476L33.444 15.6873ZM37.8169 13.6584C38.0213 12.5729 37.307 11.5273 36.2215 11.3229C35.136 11.1185 34.0904 11.8328 33.886 12.9183L35.8514 13.2884L37.8169 13.6584ZM34.0205 12.2302C33.801 13.3128 34.5007 14.3683 35.5832 14.5878C36.6658 14.8072 37.7213 14.1076 37.9407 13.025L35.9806 12.6276L34.0205 12.2302ZM38.2148 11.7637C38.4644 10.6877 37.7945 9.61309 36.7185 9.3635C35.6425 9.1139 34.5679 9.78384 34.3183 10.8598L36.2666 11.3118L38.2148 11.7637ZM34.8364 8.82115C34.542 9.88575 35.1663 10.9875 36.2309 11.2819C37.2955 11.5764 38.3972 10.952 38.6917 9.88744L36.7641 9.35429L34.8364 8.82115ZM38.8735 9.21081C39.1251 8.13528 38.4572 7.05942 37.3817 6.80782C36.3061 6.55621 35.2303 7.22413 34.9787 8.29966L36.9261 8.75524L38.8735 9.21081ZM35.0809 7.55077C35.0351 8.65439 35.8927 9.58616 36.9963 9.63194C38.0999 9.67771 39.0317 8.82016 39.0775 7.71654L37.0792 7.63365L35.0809 7.55077ZM38.8542 5.47242C38.592 4.39941 37.5096 3.7421 36.4366 4.00428C35.3636 4.26645 34.7063 5.34882 34.9685 6.42183L36.9113 5.94712L38.8542 5.47242ZM34.3531 5.07787C35.0036 5.97057 36.2546 6.1669 37.1473 5.5164C38.04 4.86589 38.2363 3.61487 37.5858 2.72217L35.9695 3.90002L34.3531 5.07787ZM35.1746 0.642587C34.1887 0.144582 32.9857 0.540127 32.4877 1.52606C31.9897 2.51199 32.3852 3.71496 33.3712 4.21297L34.2729 2.42778L35.1746 0.642587ZM33.1041 4.10015C34.1493 4.45744 35.2862 3.89979 35.6435 2.85461C36.0008 1.80942 35.4432 0.672484 34.398 0.315192L33.7511 2.20767L33.1041 4.10015ZM32.7192 0.00157273C31.6155 -0.0416191 30.6857 0.818113 30.6426 1.92184C30.5994 3.02556 31.4591 3.95532 32.5628 3.99851L32.641 2.00004L32.7192 0.00157273ZM31.6884 4.15388C32.7207 3.76082 33.2389 2.60536 32.8458 1.57309C32.4528 0.540823 31.2973 0.0226425 30.265 0.415703L30.9767 2.28479L31.6884 4.15388ZM28.577 1.18301C27.5826 1.66384 27.1663 2.85977 27.6471 3.85419C28.1279 4.84861 29.3239 5.26496 30.3183 4.78412L29.4477 2.98356L28.577 1.18301ZM25.6433 7.38707C26.5759 6.79512 26.852 5.55926 26.2601 4.6267C25.6681 3.69414 24.4323 3.41801 23.4997 4.00996L24.5715 5.69851L25.6433 7.38707ZM16.5744 9.29177C15.7568 10.0345 15.6961 11.2993 16.4388 12.1169C17.1815 12.9346 18.4464 12.9953 19.264 12.2526L17.9192 10.7722L16.5744 9.29177ZM12.2244 20.2943C12.8522 19.3855 12.6245 18.1398 11.7157 17.512C10.8069 16.8841 9.56125 17.1119 8.93341 18.0207L10.5789 19.1575L12.2244 20.2943ZM3.47775 28.2624C3.07422 29.2906 3.58064 30.4513 4.60886 30.8548C5.63708 31.2584 6.79774 30.7519 7.20127 29.7237L5.33951 28.9931L3.47775 28.2624ZM6.29638 32.2415C6.6397 31.1916 6.06694 30.0623 5.01708 29.7189C3.96722 29.3756 2.83783 29.9484 2.49451 30.9982L4.39544 31.6199L6.29638 32.2415ZM1.01081 36.6183C0.791131 37.7008 1.49059 38.7564 2.57309 38.9761C3.65559 39.1958 4.71122 38.4963 4.9309 37.4138L2.97086 37.016L1.01081 36.6183ZM4.01892 45.3844C4.05013 44.2803 3.18035 43.3599 2.07622 43.3287C0.972088 43.2975 0.0517212 44.1673 0.0205195 45.2714L2.01972 45.3279L4.01892 45.3844ZM0.0383402 48.7118C0.0810153 49.8155 1.01037 50.6757 2.11412 50.633C3.21786 50.5903 4.07803 49.661 4.03535 48.5572L2.03685 48.6345L0.0383402 48.7118ZM4.8863 55.8142C4.67193 54.7307 3.61974 54.026 2.53618 54.2404C1.45261 54.4548 0.74798 55.507 0.962346 56.5905L2.92432 56.2024L4.8863 55.8142ZM4.63444 67.8992C5.09752 68.9021 6.28587 69.3396 7.28867 68.8765C8.29148 68.4134 8.72902 67.2251 8.26593 66.2223L6.45019 67.0608L4.63444 67.8992ZM16.3695 78.3301C15.6196 77.5192 14.3542 77.4698 13.5433 78.2198C12.7323 78.9697 12.6829 80.2351 13.4329 81.046L14.9012 79.6881L16.3695 78.3301ZM25.8501 90.8458C26.8133 91.3864 28.0324 91.0438 28.573 90.0806C29.1136 89.1173 28.771 87.8982 27.8077 87.3577L26.8289 89.1018L25.8501 90.8458ZM31.0635 89.0198C30.0607 88.5568 28.8724 88.9943 28.4093 89.9971C27.9462 90.9999 28.3837 92.1882 29.3865 92.6513L30.225 90.8356L31.0635 89.0198ZM36.8319 95.3991C37.8952 95.6984 38.9997 95.0791 39.299 94.0159C39.5984 92.9526 38.9791 91.8481 37.9158 91.5487L37.3739 93.4739L36.8319 95.3991ZM48.7285 93.2504C47.6248 93.2077 46.6954 94.0679 46.6528 95.1716C46.6101 96.2754 47.4702 97.2048 48.574 97.2474L48.6513 95.2489L48.7285 93.2504ZM51.6636 97.274C52.7679 97.2503 53.644 96.3359 53.6203 95.2316C53.5967 94.1273 52.6823 93.2512 51.5779 93.2749L51.6208 95.2744L51.6636 97.274ZM55.633 93.0128C54.5348 93.1317 53.741 94.1183 53.8599 95.2165C53.9789 96.3146 54.9655 97.1085 56.0637 96.9895L55.8483 95.0012L55.633 93.0128ZM62.5794 95.8479C63.6525 95.5862 64.3103 94.5041 64.0486 93.431C63.7869 92.3579 62.7048 91.7001 61.6316 91.9618L62.1055 93.9049L62.5794 95.8479ZM69.3146 89.3545C68.3038 89.7999 67.8455 90.9804 68.2909 91.9912C68.7363 93.002 69.9168 93.4603 70.9276 93.0149L70.1211 91.1847L69.3146 89.3545ZM78.652 88.7687C79.5698 88.1542 79.8158 86.912 79.2012 85.9942C78.5867 85.0763 77.3445 84.8304 76.4267 85.4449L77.5393 87.1068L78.652 88.7687ZM78.0899 84.2782C77.1996 84.932 77.008 86.1838 77.6618 87.074C78.3157 87.9643 79.5674 88.1559 80.4577 87.502L79.2738 85.8901L78.0899 84.2782ZM83.8956 84.7394C84.7257 84.0108 84.8081 82.7471 84.0794 81.917C83.3508 81.0868 82.0872 81.0045 81.257 81.7331L82.5763 83.2362L83.8956 84.7394ZM85.565 77.4251C84.8363 78.2553 84.9187 79.519 85.7488 80.2476C86.579 80.9762 87.8426 80.8939 88.5713 80.0637L87.0681 78.7444L85.565 77.4251ZM89.5215 78.9346C90.1823 78.0495 90.0005 76.7963 89.1155 76.1355C88.2304 75.4746 86.9772 75.6564 86.3163 76.5415L87.9189 77.738L89.5215 78.9346ZM86.572 76.0951C86.1569 77.1187 86.6502 78.285 87.6738 78.7002C88.6974 79.1153 89.8637 78.622 90.2788 77.5984L88.4254 76.8468L86.572 76.0951ZM90.6881 75.2609C90.645 74.1572 89.7153 73.2974 88.6116 73.3404C87.5079 73.3835 86.648 74.3132 86.6911 75.4169L88.6896 75.3389L90.6881 75.2609ZM86.3738 74.4189C86.9402 75.3672 88.1681 75.6768 89.1164 75.1104C90.0647 74.5441 90.3743 73.3162 89.8079 72.3678L88.0909 73.3934L86.3738 74.4189ZM87.8715 70.2716C86.9752 69.6261 85.7253 69.8293 85.0797 70.7256C84.4342 71.6219 84.6374 72.8718 85.5337 73.5173L86.7026 71.8945L87.8715 70.2716ZM85.2641 73.3423C86.2183 73.8986 87.4429 73.5761 87.9993 72.6219C88.5556 71.6677 88.2331 70.4431 87.2789 69.8868L86.2715 71.6145L85.2641 73.3423ZM85.9984 69.2964C84.9556 68.9322 83.815 69.4822 83.4507 70.525C83.0865 71.5678 83.6365 72.7084 84.6793 73.0727L85.3389 71.1845L85.9984 69.2964ZM83.7345 72.8892C84.8378 72.9419 85.7749 72.0903 85.8276 70.9869C85.8803 69.8836 85.0286 68.9465 83.9253 68.8938L83.8299 70.8915L83.7345 72.8892ZM81.7403 68.85C80.6365 68.8074 79.7072 69.6675 79.6645 70.7713C79.6218 71.875 80.482 72.8044 81.5857 72.847L81.663 70.8485L81.7403 68.85ZM73.7071 71.9231C74.7906 72.1374 75.8428 71.4328 76.0572 70.3492C76.2715 69.2657 75.5669 68.2135 74.4833 67.9991L74.0952 69.9611L73.7071 71.9231ZM64.0753 64.6196C63.0725 64.1566 61.8842 64.5941 61.4211 65.5969C60.958 66.5998 61.3956 67.7881 62.3984 68.2512L63.2369 66.4354L64.0753 64.6196ZM49.2516 59.453C50.0625 60.203 51.3279 60.1535 52.0779 59.3426C52.8278 58.5316 52.7784 57.2663 51.9675 56.5163L50.6095 57.9847L49.2516 59.453ZM42.9399 45.0784C42.3993 44.1151 41.1802 43.7725 40.217 44.3131C39.2537 44.8537 38.9111 46.0728 39.4517 47.036L41.1958 46.0572L42.9399 45.0784ZM37.6462 43.4996C38.1093 44.5024 39.2976 44.94 40.3005 44.4769C41.3033 44.0138 41.7408 42.8254 41.2777 41.8226L39.462 42.6611L37.6462 43.4996ZM38.7488 34.9704C38.4494 33.9071 37.3449 33.2879 36.2816 33.5872C35.2184 33.8865 34.5991 34.9911 34.8984 36.0543L36.8236 35.5124L38.7488 34.9704ZM33.0501 24.3123C33.0927 25.4161 34.0221 26.2763 35.1258 26.2336C36.2296 26.1909 37.0898 25.2615 37.0471 24.1578L35.0486 24.2351L33.0501 24.3123ZM35.0117 22.3258H37.0117C37.0117 22.218 37.0121 22.1103 37.0128 22.0027L35.0129 21.9891L33.0129 21.9755C33.0121 22.0922 33.0117 22.2089 33.0117 22.3258H35.0117ZM35.0403 20.6429L37.0392 20.711C37.0613 20.0626 37.0966 19.4176 37.1449 18.7764L35.1506 18.6261L33.1563 18.4758C33.1038 19.1717 33.0655 19.8715 33.0415 20.5748L35.0403 20.6429ZM35.427 15.9476L37.41 16.2078C37.5225 15.3504 37.6584 14.5004 37.8169 13.6584L35.8514 13.2884L33.886 12.9183C33.7138 13.8329 33.5662 14.7562 33.444 15.6873L35.427 15.9476ZM35.9806 12.6276L37.9407 13.025C38.0264 12.6025 38.1178 12.182 38.2148 11.7637L36.2666 11.3118L34.3183 10.8598C34.2129 11.3143 34.1136 11.7712 34.0205 12.2302L35.9806 12.6276ZM36.7641 9.35429L38.6917 9.88744C38.7204 9.78374 38.7494 9.68018 38.7788 9.57677L36.8549 9.03018L34.9311 8.48358C34.8991 8.59594 34.8676 8.70847 34.8364 8.82115L36.7641 9.35429ZM36.8549 9.03018L38.7788 9.57677C38.8134 9.45495 38.845 9.33293 38.8735 9.21081L36.9261 8.75524L34.9787 8.29966C34.9643 8.36094 34.9485 8.42226 34.9311 8.48358L36.8549 9.03018ZM37.0792 7.63365L39.0775 7.71654C39.1094 6.94613 39.0296 6.19027 38.8542 5.47242L36.9113 5.94712L34.9685 6.42183C35.0568 6.78343 35.0969 7.16403 35.0809 7.55077L37.0792 7.63365ZM35.9695 3.90002L37.5858 2.72217C36.9617 1.86568 36.1472 1.13387 35.1746 0.642587L34.2729 2.42778L33.3712 4.21297C33.7186 4.38848 34.0613 4.67743 34.3531 5.07787L35.9695 3.90002ZM33.7511 2.20767L34.398 0.315192C33.8665 0.133512 33.3035 0.0244356 32.7192 0.00157273L32.641 2.00004L32.5628 3.99851C32.7484 4.00578 32.9287 4.04019 33.1041 4.10015L33.7511 2.20767ZM30.9767 2.28479L30.265 0.415703C30.1411 0.46289 30.0178 0.513983 29.8952 0.568948L30.7135 2.39391L31.5317 4.21887C31.5851 4.19492 31.6374 4.17332 31.6884 4.15388L30.9767 2.28479ZM30.7135 2.39391L29.8952 0.568948C29.4524 0.767492 29.013 0.972216 28.577 1.18301L29.4477 2.98356L30.3183 4.78412C30.7196 4.59008 31.1241 4.40162 31.5317 4.21887L30.7135 2.39391ZM24.5715 5.69851L23.4997 4.00996C21.0387 5.5721 18.7222 7.34086 16.5744 9.29177L17.9192 10.7722L19.264 12.2526C21.2428 10.4551 23.3768 8.82575 25.6433 7.38707L24.5715 5.69851ZM10.5789 19.1575L8.93341 18.0207C6.74353 21.1904 4.90595 24.6232 3.47775 28.2624L5.33951 28.9931L7.20127 29.7237C8.51568 26.3745 10.2074 23.2139 12.2244 20.2943L10.5789 19.1575ZM4.39544 31.6199L2.49451 30.9982C1.89617 32.8279 1.39938 34.7035 1.01081 36.6183L2.97086 37.016L4.9309 37.4138C5.28856 35.6514 5.74576 33.9253 6.29638 32.2415L4.39544 31.6199ZM2.01972 45.3279L0.0205195 45.2714C0.00687027 45.7544 9.53674e-07 46.239 0 46.7252L2 46.7252L4 46.7252C4 46.2767 4.00634 45.8297 4.01892 45.3844L2.01972 45.3279ZM2 46.7252H0C0 47.3904 0.0128558 48.0526 0.0383402 48.7118L2.03685 48.6345L4.03535 48.5572C4.01186 47.9496 4 47.3388 4 46.7252H2ZM2.92432 56.2024L0.962346 56.5905C1.74474 60.5453 2.98827 64.3345 4.63444 67.8992L6.45019 67.0608L8.26593 66.2223C6.75077 62.9412 5.60638 59.4541 4.8863 55.8142L2.92432 56.2024ZM14.9012 79.6881L13.4329 81.046C17.0201 84.9248 21.2082 88.2407 25.8501 90.8458L26.8289 89.1018L27.8077 87.3577C23.5333 84.9587 19.675 81.9043 16.3695 78.3301L14.9012 79.6881ZM30.225 90.8356L29.3865 92.6513C31.7735 93.7536 34.2612 94.6754 36.8319 95.3991L37.3739 93.4739L37.9158 91.5487C35.5501 90.8828 33.2607 90.0345 31.0635 89.0198L30.225 90.8356ZM48.6513 95.2489L48.574 97.2474C49.2331 97.2729 49.8954 97.2858 50.5605 97.2858V95.2858V93.2858C49.9469 93.2858 49.3362 93.2739 48.7285 93.2504L48.6513 95.2489ZM50.5605 95.2858L50.5606 97.2858C50.9291 97.2858 51.2968 97.2818 51.6636 97.274L51.6208 95.2744L51.5779 93.2749C51.2397 93.2821 50.9006 93.2858 50.5605 93.2858L50.5605 95.2858ZM55.8483 95.0012L56.0637 96.9895C58.2813 96.7493 60.4565 96.3657 62.5794 95.8479L62.1055 93.9049L61.6316 91.9618C59.6779 92.4383 57.6755 92.7916 55.633 93.0128L55.8483 95.0012ZM70.1211 91.1847L70.9276 93.0149C73.6356 91.8216 76.2186 90.3979 78.652 88.7687L77.5393 87.1068L76.4267 85.4449C74.1855 86.9454 71.8071 88.2562 69.3146 89.3545L70.1211 91.1847ZM79.2738 85.8901L80.4577 87.502C81.6442 86.6306 82.7912 85.7087 83.8956 84.7394L82.5763 83.2362L81.257 81.7331C80.2395 82.6261 79.1828 83.4754 78.0899 84.2782L79.2738 85.8901ZM87.0681 78.7444L88.5713 80.0637C88.8137 79.7875 89.0533 79.5085 89.2898 79.227L87.7583 77.9406L86.2269 76.6542C86.009 76.9136 85.7884 77.1706 85.565 77.4251L87.0681 78.7444ZM87.7583 77.9406L89.2898 79.227C89.3702 79.1312 89.4475 79.0337 89.5215 78.9346L87.9189 77.738L86.3163 76.5415C86.2887 76.5785 86.2589 76.6161 86.2269 76.6542L87.7583 77.9406ZM88.4254 76.8468L90.2788 77.5984C90.5897 76.8316 90.7184 76.0387 90.6881 75.2609L88.6896 75.3389L86.6911 75.4169C86.6999 75.6433 86.6636 75.8693 86.572 76.0951L88.4254 76.8468ZM88.0909 73.3934L89.8079 72.3678C89.32 71.5509 88.6553 70.8361 87.8715 70.2716L86.7026 71.8945L85.5337 73.5173C85.8927 73.7759 86.1773 74.0899 86.3738 74.4189L88.0909 73.3934ZM86.2715 71.6145L87.2789 69.8868C86.8776 69.6528 86.4491 69.4538 85.9984 69.2964L85.3389 71.1845L84.6793 73.0727C84.885 73.1445 85.0808 73.2354 85.2641 73.3423L86.2715 71.6145ZM83.8299 70.8915L83.9253 68.8938C83.8083 68.8882 83.6906 68.8854 83.5723 68.8854L83.5723 70.8854L83.5723 72.8854C83.6268 72.8854 83.6808 72.8867 83.7345 72.8892L83.8299 70.8915ZM83.5723 70.8854V68.8854C82.9587 68.8854 82.3479 68.8735 81.7403 68.85L81.663 70.8485L81.5857 72.847C82.2449 72.8725 82.9071 72.8854 83.5723 72.8854V70.8854ZM74.0952 69.9611L74.4833 67.9991C70.8435 67.2791 67.3564 66.1347 64.0753 64.6196L63.2369 66.4354L62.3984 68.2512C65.9632 69.8973 69.7523 71.1407 73.7071 71.9231L74.0952 69.9611ZM50.6095 57.9847L51.9675 56.5163C48.3933 53.2109 45.3388 49.3527 42.9399 45.0784L41.1958 46.0572L39.4517 47.036C42.0569 51.6779 45.3728 55.8658 49.2516 59.453L50.6095 57.9847ZM39.462 42.6611L41.2777 41.8226C40.2631 39.6255 39.4148 37.3361 38.7488 34.9704L36.8236 35.5124L34.8984 36.0543C35.6221 38.6251 36.5439 41.1127 37.6462 43.4996L39.462 42.6611ZM35.0486 24.2351L37.0471 24.1578C37.0236 23.5501 37.0117 22.9394 37.0117 22.3258L35.0117 22.3258L33.0117 22.3258C33.0117 22.991 33.0246 23.6532 33.0501 24.3123L35.0486 24.2351Z" fill="white"/>
</svg>
