<svg width="13" height="13" viewBox="0 0 13 13" fill="none" xmlns="http://www.w3.org/2000/svg">
<path d="M6.00806 0.845947C6.15773 0.385291 6.80955 0.385293 6.95923 0.845947L7.80396 3.44653C8.0048 4.06446 8.58096 4.48262 9.23071 4.48267H11.9651C12.4495 4.48267 12.6509 5.10226 12.259 5.38696L10.0471 6.99438C9.52139 7.37635 9.30139 8.05409 9.5022 8.67212L10.3469 11.2727C10.4965 11.7333 9.96922 12.116 9.57739 11.8313L7.36548 10.2239C6.83976 9.84194 6.12753 9.84194 5.60181 10.2239L3.38989 11.8313C2.99806 12.116 2.4708 11.7333 2.62036 11.2727L3.46509 8.67212C3.6659 8.05409 3.4459 7.37635 2.92017 6.99438L0.708252 5.38696C0.316394 5.10226 0.517837 4.48267 1.0022 4.48267H3.73657C4.38632 4.48262 4.96249 4.06446 5.16333 3.44653L6.00806 0.845947Z" stroke="#FFF5F5"/>
</svg>
